<svg width="282" height="282" viewBox="0 0 282 282" fill="none" xmlns="http://www.w3.org/2000/svg">
<path d="M171.775 111.109C183.862 123.546 204.095 123.835 216.61 111.673C229.047 99.5855 229.337 79.3527 217.172 66.991C205.007 54.629 184.93 54.1891 172.492 66.2762C159.977 78.4388 159.688 98.6715 171.775 111.109ZM227.451 168.399C239.538 180.836 259.771 181.125 272.286 168.962C284.723 156.875 285.013 136.643 272.848 124.281C260.683 111.919 240.606 111.479 228.168 123.566C215.653 135.729 215.364 155.961 227.451 168.399ZM116.252 53.8209C128.264 66.1808 148.419 66.5452 160.856 54.4581C173.216 42.4465 173.583 22.1386 161.571 9.77875C149.408 -2.73631 129.098 -2.95025 116.738 9.06142C104.301 21.1485 104.09 41.3059 116.252 53.8209ZM238.567 157.596C232.146 150.988 232.517 141.105 239.047 134.76C245.499 128.49 255.466 128.325 261.887 134.932C268.157 141.384 267.935 151.577 261.483 157.847C254.954 164.192 244.837 164.047 238.567 157.596ZM127.679 42.7159C121.484 36.3417 121.624 26.5318 127.921 20.4129C134.14 14.3693 144.105 14.3583 150.3 20.7326C156.343 26.9513 156.047 36.9123 149.829 42.9558C143.532 49.0748 133.723 48.9347 127.679 42.7159ZM183.28 99.9282C177.085 93.5539 177.301 83.8217 183.597 77.7028C189.816 71.6592 199.706 71.5706 205.9 77.9449C212.095 84.3191 211.648 94.1246 205.505 100.246C199.36 106.52 189.474 106.303 183.28 99.9282ZM173.97 220.373C186.057 232.811 206.29 233.099 218.727 221.012C231.087 209 231.454 188.693 219.289 176.331C207.124 163.969 186.97 163.604 174.61 175.616C162.172 187.703 161.883 207.936 173.97 220.373ZM118.294 163.083C130.381 175.521 150.614 175.81 163.051 163.723C175.411 151.711 175.778 131.403 163.613 119.041C151.448 106.679 131.293 106.315 118.934 118.326C106.496 130.413 106.207 150.646 118.294 163.083ZM62.6935 105.871C74.7052 118.231 94.9376 118.52 107.375 106.433C119.735 94.421 120.102 74.1131 108.012 61.8287C95.7718 49.3894 75.617 49.0243 63.2572 61.036C50.8197 73.1231 50.531 93.3558 62.6935 105.871ZM185.008 209.646C178.587 203.038 179.036 193.08 185.566 186.734C191.94 180.54 201.907 180.375 208.329 186.983C214.598 193.434 214.377 203.627 208.002 209.821C201.473 216.167 191.278 216.097 185.008 209.646ZM129.332 152.356C122.987 145.826 123.209 135.634 129.738 129.289C136.113 123.094 146.307 123.163 152.652 129.693C158.998 136.223 158.776 146.414 152.402 152.609C145.872 158.955 135.678 158.886 129.332 152.356ZM73.7317 95.1437C67.3858 88.6138 67.6082 78.4222 74.1377 72.0766C80.512 65.8819 90.7058 65.9507 97.0517 72.4805C103.322 78.9324 102.949 88.9688 96.5743 95.1635C90.0448 101.509 80.0018 101.596 73.7317 95.1437ZM120.411 272.423C132.498 284.861 152.731 285.149 165.168 273.062C177.606 260.975 177.895 240.743 165.808 228.305C153.721 215.868 133.488 215.579 121.051 227.666C108.614 239.753 108.324 259.986 120.411 272.423ZM64.7352 215.133C76.8223 227.571 97.0551 227.86 109.493 215.773C121.93 203.685 122.219 183.453 110.132 171.016C98.0448 158.578 77.8124 158.289 65.3749 170.376C52.9375 182.463 52.6481 202.696 64.7352 215.133ZM9.13454 157.921C21.1462 170.281 41.379 170.57 53.8164 158.483C66.2539 146.396 66.5429 126.163 54.5312 113.803C42.3687 101.288 22.136 100.999 9.69851 113.086C-2.73894 125.173 -3.02799 145.406 9.13454 157.921ZM75.7734 204.406C69.4278 197.877 69.6499 187.685 76.1798 181.339C82.554 175.144 92.7482 175.213 99.0937 181.743C105.44 188.273 105.217 198.464 98.8429 204.659C92.3131 211.005 82.1192 210.936 75.7734 204.406ZM131.449 261.696C125.028 255.089 125.477 245.13 132.007 238.784C138.381 232.59 148.349 232.425 154.77 239.033C161.04 245.484 160.818 255.677 154.444 261.871C147.914 268.217 137.719 268.148 131.449 261.696ZM20.1727 147.194C13.8268 140.664 14.0493 130.472 20.5791 124.127C26.9534 117.932 37.1472 118.001 43.4931 124.53C49.7632 130.982 49.3899 141.019 43.0156 147.213C36.4858 153.559 26.4428 153.646 20.1727 147.194Z" fill="#CA8742" fill-opacity="0.9"/>
</svg>
